<svg xmlns="http://www.w3.org/2000/svg" xmlns:xlink="http://www.w3.org/1999/xlink" width="132.229" height="82.966" viewBox="0 0 132.229 82.966">
  <defs>
    <linearGradient id="linear-gradient" x1="0.12" y1="0.132" x2="0.843" y2="0.942" gradientUnits="objectBoundingBox">
      <stop offset="0" stop-color="#8000d0"/>
      <stop offset="0.557" stop-color="#6800d0"/>
      <stop offset="1" stop-color="#7000d0"/>
    </linearGradient>
  </defs>
  <g id="LOGO" transform="translate(0.697 0.555)">
    <path id="Path_135" data-name="Path 135" d="M9068.972-95.65c15.838-22.289,32.217-14.8,42.641-8.3s16.022,15.581,34.053,12.781,26.815-14.862,36.68-6.815-2.8,70.469-39.744,56.577-36-13.326-59.452-10.6S9053.137-73.361,9068.972-95.65Z" transform="translate(-9057.45 115.923)" fill="url(#linear-gradient)"/>
    <path id="Path_82" data-name="Path 82" d="M9068.972-95.65c15.838-22.289,32.217-14.8,42.641-8.3s16.022,15.581,34.053,12.781,26.815-14.862,36.68-6.815-2.8,70.469-39.744,56.577-36-13.326-59.452-10.6S9053.137-73.361,9068.972-95.65Z" transform="matrix(0.996, 0.087, -0.087, 0.996, -9029.271, -679.479)" fill="none" stroke="#fff" stroke-width="1"/>
    <path id="Path_1" data-name="Path 1" d="M418.16,348.936l.045-.137v-.209a3.062,3.062,0,0,0-.064-.631,6.453,6.453,0,0,0-.189-.7,2.359,2.359,0,0,0-.238-.509,2.68,2.68,0,0,0-.369-.462,7.183,7.183,0,0,0-.652-.578,2.733,2.733,0,0,0-.557-.345l-.025-.011-.024-.012a3.409,3.409,0,0,0-.645-.251,4.592,4.592,0,0,0-.632-.118h-.273a1.27,1.27,0,0,1-.325-.042,3.665,3.665,0,0,0-.7.1,3.073,3.073,0,0,0-.758.291l-.02.011-.02.01a2.722,2.722,0,0,0-.654.452,2.294,2.294,0,0,0-.44.576l-.012.022-.013.021q-.123.208-.248.436a1.924,1.924,0,0,0-.137.317,3.47,3.47,0,0,1-.18.435l-.029.058-.046.091-.061.185c-.038.114-.076.211-.114.3l-2.282,6.84-1.123,3.367-1.207-3.338-2.53-7a7.018,7.018,0,0,0-.725-1.485,4.135,4.135,0,0,0-.866-.962l-.017-.013-.017-.014a2.818,2.818,0,0,0-.915-.524,4.381,4.381,0,0,0-1.126-.227c-.131,0-.267.007-.4.018a1.106,1.106,0,0,0-.254.055l-.275.092-.273.091-.04.013-.041.01-.119.032-.248.116a3.936,3.936,0,0,0-.929.6,3.036,3.036,0,0,0-.637.781,4.831,4.831,0,0,0-.387.979,3.843,3.843,0,0,0-.136,1.009c0,.109.006.22.017.332s.028.221.051.338l.09.451c.018.088.035.172.054.25l6.866,15.523.236.534-.258.523-3.478,7.041-.065.13,0,.01-.005.01-.054.11-.013.028-.019.056-.071.213v.23l-.09.18v.324l-.046.044v.2a3.21,3.21,0,0,0,.162,1.015,3.061,3.061,0,0,0,.486.909l.013.017.013.018a2.9,2.9,0,0,0,.742.734,3.738,3.738,0,0,0,1.069.473l.063.018.061.024a.486.486,0,0,0,.116.034c.126.014.254.034.379.06h.044a1.788,1.788,0,0,1,.44.057,1.875,1.875,0,0,1,.2.033,3.131,3.131,0,0,0,.955-.163,3.048,3.048,0,0,0,.9-.488l.016-.012.017-.012a3.648,3.648,0,0,0,.825-.832,7.714,7.714,0,0,0,.755-1.349l11.109-25.385.043-.1.058-.088c.018-.056.037-.128.058-.209l.011-.042.014-.041a.651.651,0,0,0,.023-.092,2.953,2.953,0,0,1,.116-.464.677.677,0,0,0,.021-.086s0-.035,0-.106Z" transform="translate(-301.074 -313.824)" fill="#ffe65a"/>
    <path id="Path_2" data-name="Path 2" d="M232.515,355.878l.067-.019a2.149,2.149,0,0,0,.592-.261,2.5,2.5,0,0,0,.527-.457l.024-.027.026-.025a3.841,3.841,0,0,0,.494-.617,4.05,4.05,0,0,0,.362-.693l.01-.026.011-.026a3.073,3.073,0,0,0,.226-.71,4.669,4.669,0,0,0,.07-.822V329.253a4.8,4.8,0,0,0-.072-.811,2.3,2.3,0,0,0-.2-.635l-.031-.063-.024-.065a2.975,2.975,0,0,0-.335-.657,4.408,4.408,0,0,0-.509-.618l-.028-.028-.026-.03a1.891,1.891,0,0,0-.439-.373,5.935,5.935,0,0,0-.671-.357l-.024-.011-.023-.012c-.088-.044-.2-.092-.32-.142a2.233,2.233,0,0,0-.221-.077c-.148-.029-.288-.06-.421-.09l-.285-.061h-.327a4.31,4.31,0,0,0-.774.071,3,3,0,0,0-.7.227l-.044.02-.044.017a2.86,2.86,0,0,0-.663.35,4.869,4.869,0,0,0-.648.542,3.355,3.355,0,0,0-.462.581,6.522,6.522,0,0,0-.4.755,4.83,4.83,0,0,0-.223.752,3.4,3.4,0,0,0-.085.715v7.829H214.19V329.3a4.822,4.822,0,0,0-.072-.81,2.325,2.325,0,0,0-.2-.635l-.031-.063-.024-.066a2.978,2.978,0,0,0-.335-.657,4.285,4.285,0,0,0-1.124-1.13,2.961,2.961,0,0,0-.651-.334l-.065-.024-.062-.031a2.275,2.275,0,0,0-.634-.206c-.29-.051-.579-.09-.857-.117a4.342,4.342,0,0,0-.719.071,3.022,3.022,0,0,0-.7.227l-.025.012-.026.01a4.038,4.038,0,0,0-.69.365,3.8,3.8,0,0,0-.613.5,3.35,3.35,0,0,0-.462.58,6.53,6.53,0,0,0-.4.755,4.948,4.948,0,0,0-.223.753,3.413,3.413,0,0,0-.085.714v23.033a3.275,3.275,0,0,0,.082.723,6.966,6.966,0,0,0,.227.785c.126.25.267.506.418.76a1.967,1.967,0,0,0,.386.476l.423.371v.08a2.114,2.114,0,0,0,.213.146,2.752,2.752,0,0,0,.624.285l.033.01.033.012a4.968,4.968,0,0,0,.8.218,4.323,4.323,0,0,0,.772.071h.327l.29-.062c.13-.029.271-.06.421-.09.1-.025.206-.055.325-.091s.24-.071.347-.1a4.379,4.379,0,0,0,.542-.312,3.522,3.522,0,0,0,.534-.435,4.371,4.371,0,0,0,.51-.619,3.358,3.358,0,0,0,.347-.646l.011-.026.012-.026a3.084,3.084,0,0,0,.226-.71,4.931,4.931,0,0,0,.07-.867v-8.51h12.814v8.555a3.482,3.482,0,0,0,.082.768,6.846,6.846,0,0,0,.226.785c.122.24.258.48.4.714a3.271,3.271,0,0,0,.434.552c.2.18.412.348.617.5a2.712,2.712,0,0,0,.479.29c.225.074.461.144.7.208a4.57,4.57,0,0,0,.632.118h.386a4.694,4.694,0,0,0,.806-.073,3.7,3.7,0,0,0,.726-.2Z" transform="translate(-189.218 -302.302)" fill="#ffe65a"/>
    <path id="Path_3" data-name="Path 3" d="M288.081,365.486a3.985,3.985,0,0,0,.269-1.5V348.945a3.859,3.859,0,0,0-.27-1.461,3.385,3.385,0,0,0-.834-1.18l-.027-.025-.025-.027a3.366,3.366,0,0,0-1.175-.839,4.444,4.444,0,0,0-1.477-.316,4.067,4.067,0,0,0-1.45.258,3.544,3.544,0,0,0-1.219.832,3.869,3.869,0,0,0-.844,1.243,3.579,3.579,0,0,0-.286,1.423v15.219a3.8,3.8,0,0,0,.269,1.459,3.62,3.62,0,0,0,.8,1.193,3.824,3.824,0,0,0,1.232.8,4.559,4.559,0,0,0,1.015.258h.462a4.262,4.262,0,0,0,1.509-.262,3.3,3.3,0,0,0,1.187-.783A3.886,3.886,0,0,0,288.081,365.486Z" transform="translate(-233.103 -313.952)" fill="#ffe65a"/>
    <path id="Path_4" data-name="Path 4" d="M286.391,324.337a3.6,3.6,0,0,0,.592-.48,6.6,6.6,0,0,0,.448-.579,3.606,3.606,0,0,0,.319-.575l.022-.049.026-.048a2.4,2.4,0,0,0,.225-.556,4.514,4.514,0,0,0,.117-.634v0a1.281,1.281,0,0,1,.046-.339v-.093a4.774,4.774,0,0,0-.072-.809,3,3,0,0,0-.224-.722l-.019-.043-.016-.045a2.962,2.962,0,0,0-.334-.655,7.351,7.351,0,0,0-.535-.689,4.7,4.7,0,0,0-.636-.533,2.943,2.943,0,0,0-.65-.334l-.066-.024-.063-.031a2.306,2.306,0,0,0-.633-.206c-.291-.05-.581-.09-.861-.118h-.036a1.26,1.26,0,0,1-.335.046h0a4.437,4.437,0,0,0-.634.119,2.348,2.348,0,0,0-.549.225l-.047.026-.049.022a3.589,3.589,0,0,0-.572.322,6.63,6.63,0,0,0-.577.451,4.379,4.379,0,0,0-.481.589,4.909,4.909,0,0,0-.395.7,6.663,6.663,0,0,0-.231.814,3.8,3.8,0,0,0-.085.806,3.468,3.468,0,0,0,.082.768,6.882,6.882,0,0,0,.234.806,8.073,8.073,0,0,0,.411.784,1.965,1.965,0,0,0,.385.476l.423.371v.031c.077.061.153.12.228.177a5.4,5.4,0,0,0,.579.381,4.131,4.131,0,0,0,.6.206,2.172,2.172,0,0,0,.57.074,1.347,1.347,0,0,1,.35.046h.2l.056,0c.058.005.116.008.174.008a2.207,2.207,0,0,0,.467-.053,6.527,6.527,0,0,0,.812-.233A6.443,6.443,0,0,0,286.391,324.337Z" transform="translate(-232.715 -297.346)" fill="#ffe65a"/>
    <g id="Group_1" data-name="Group 1" transform="translate(53.021 31.373)">
      <path id="Path_5" data-name="Path 5" d="M319.327,363.362a3.292,3.292,0,0,0-.71-1.043,2.977,2.977,0,0,0-1.009-.679,4.021,4.021,0,0,0-1.268-.274h-8.5l1.714-2.042,8.313-9.9.034-.041.019-.02c.023-.04.042-.074.058-.106l.089-.177.117-.118.024-.071.039-.084a.574.574,0,0,0,.043-.113l.082-.33c.022-.113.04-.211.051-.293a1.211,1.211,0,0,0,.01-.163,2.518,2.518,0,0,0-.118-.79,1.58,1.58,0,0,0-.334-.561l-.019-.022-.018-.022a2.224,2.224,0,0,0-.577-.513,1.76,1.76,0,0,0-.6-.212h-.083a1.506,1.506,0,0,1-.369-.046H316.1a1.5,1.5,0,0,1-.378-.048,1.477,1.477,0,0,1-.276-.043l-15.38.045a2.873,2.873,0,0,0-1.076.2,4.57,4.57,0,0,1,.97,1.447,5.077,5.077,0,0,1,.362,1.931v2.756h7.14l-1.712,2.042-5.428,6.473V364.3a5.2,5.2,0,0,1-.362,1.977,4.987,4.987,0,0,1-.951,1.461h17.452a3.363,3.363,0,0,0,1.23-.213,2.5,2.5,0,0,0,.94-.664l.014-.016.015-.015a2.978,2.978,0,0,0,.675-1.015,3.3,3.3,0,0,0,.228-1.242A3.041,3.041,0,0,0,319.327,363.362Z" transform="translate(-296.864 -345.648)" fill="#ffe65a"/>
      <path id="Path_6" data-name="Path 6" d="M296.046,385.191l-1.528,1.822a2.516,2.516,0,0,1-.15.223,2.624,2.624,0,0,1-.2.242c-.014.024-.027.046-.038.066-.038.1-.072.2-.1.3-.053.178-.118.366-.193.555l0,.007v.442l0,.045a1.447,1.447,0,0,0,.1.653,2.27,2.27,0,0,0,.426.672,2.448,2.448,0,0,0,.311.261c.088-.074.174-.152.259-.237a3.887,3.887,0,0,0,.861-1.253,3.984,3.984,0,0,0,.269-1.5Z" transform="translate(-293.82 -368.829)" fill="#ffe65a"/>
      <path id="Path_7" data-name="Path 7" d="M295.083,347.947l-.027-.025-.021-.022c-.024.023-.049.043-.072.067a2.971,2.971,0,0,0-.676,1.013,3.184,3.184,0,0,0-.228,1.2v.045a3.289,3.289,0,0,0,.227,1.241,3.138,3.138,0,0,0,1.684,1.694c.071.029.143.053.216.075v-2.647a3.858,3.858,0,0,0-.27-1.461A3.383,3.383,0,0,0,295.083,347.947Z" transform="translate(-293.961 -346.968)" fill="#ffe65a"/>
    </g>
    <g id="Group_2" data-name="Group 2" transform="translate(72.459 31.373)">
      <path id="Path_8" data-name="Path 8" d="M341.608,387.434a2.59,2.59,0,0,1-.2.242l-.038.066c-.038.1-.072.2-.1.3-.052.178-.118.366-.193.555l0,.007v.441l0,.045a1.448,1.448,0,0,0,.1.653,2.272,2.272,0,0,0,.425.672,2.4,2.4,0,0,0,.656.464c.05.024.109.041.163.062.016-.006.032-.009.047-.016a2.5,2.5,0,0,0,.94-.665l.014-.015.015-.015a2.98,2.98,0,0,0,.675-1.015,3.3,3.3,0,0,0,.228-1.242,3.042,3.042,0,0,0-.239-1.215,3.3,3.3,0,0,0-.71-1.043c-.067-.067-.136-.129-.206-.188l-1.412,1.683A2.459,2.459,0,0,1,341.608,387.434Z" transform="translate(-341.061 -369.026)" fill="#ffe65a"/>
      <path id="Path_9" data-name="Path 9" d="M342.8,350.305l.019-.02c.023-.04.042-.074.058-.106l.089-.177.117-.119.024-.071.039-.084a.581.581,0,0,0,.043-.113l.082-.329c.022-.114.039-.211.051-.293a1.2,1.2,0,0,0,.01-.163,2.521,2.521,0,0,0-.118-.79,1.578,1.578,0,0,0-.334-.561l-.019-.022-.018-.023a2.506,2.506,0,0,0-.227-.239,3.639,3.639,0,0,0-.417.358,2.969,2.969,0,0,0-.675,1.013,3.175,3.175,0,0,0-.228,1.2v.045a3.3,3.3,0,0,0,.227,1.241,2.877,2.877,0,0,0,.247.479l1-1.185Z" transform="translate(-341.202 -346.556)" fill="#ffe65a"/>
      <path id="Path_10" data-name="Path 10" d="M365.572,363.362a3.287,3.287,0,0,0-.71-1.043,2.98,2.98,0,0,0-1.009-.679,4.027,4.027,0,0,0-1.268-.274h-8.5l1.714-2.042,8.312-9.9.034-.041.019-.02c.023-.04.043-.074.058-.106l.089-.177.117-.118.024-.071.04-.084a.568.568,0,0,0,.043-.113l.082-.33c.022-.113.039-.211.051-.293a1.206,1.206,0,0,0,.01-.163,2.517,2.517,0,0,0-.118-.79,1.573,1.573,0,0,0-.334-.561l-.019-.022-.019-.022a2.225,2.225,0,0,0-.577-.513,1.757,1.757,0,0,0-.6-.212h-.084a1.5,1.5,0,0,1-.368-.046h-.219a1.5,1.5,0,0,1-.378-.048,1.483,1.483,0,0,1-.276-.043l-15.38.045a3.147,3.147,0,0,0-.6.055,2.824,2.824,0,0,1,.582.993,3.744,3.744,0,0,1,.181,1.181,2.454,2.454,0,0,1-.023.341c-.015.106-.037.235-.067.386q-.046.183-.09.364a1.825,1.825,0,0,1-.136.363,1.277,1.277,0,0,1-.113.25,1.05,1.05,0,0,1-.158.2c-.03.061-.068.129-.113.2a1.038,1.038,0,0,1-.158.2l-1.078,1.285a2.834,2.834,0,0,0,.577.316,2.654,2.654,0,0,0,1.011.19c.054,0,.109,0,.163,0l.031,0h7.385L352,354.065l-5.984,7.135c.1.082.193.168.285.26a4.558,4.558,0,0,1,.971,1.431,4.3,4.3,0,0,1,.339,1.7,4.574,4.574,0,0,1-.316,1.7,4.248,4.248,0,0,1-.949,1.431l-.014.013h16.379a3.364,3.364,0,0,0,1.23-.213,2.5,2.5,0,0,0,.939-.664l.014-.016.015-.015a2.984,2.984,0,0,0,.676-1.015,3.306,3.306,0,0,0,.228-1.242A3.04,3.04,0,0,0,365.572,363.362Z" transform="translate(-343.11 -345.648)" fill="#ffe65a"/>
    </g>
  </g>
</svg>
